# xmcd CD database file
#
# Track frame offsets:
#	150
#	11914
#	23368
#	35963
#	46802
#	60558
#	73327
#	83461
#	96091
#	108282
#	121874
#	135165
#	149197
#	162277
#	173477
#	186097
#	199556
#	212484
#	224524
#	235804
#
# Disc length: 3321 seconds
#
# Revision: 0
# Processed by: cddbd v1.5.2PL0 Copyright (c) Steve Scherf et al.
# Submitted via: CDex 1.51
#
DISCID=110cf714
DTITLE=Muddy Waters - Father of Chicago Blues
DYEAR=2006
DGENRE=Blues
TTITLE0=my life is ruined
TTITLE1=she's all right
TTITLE2=turn the lamp down low (baby please don't go)
TTITLE3=loviing man
TTITLE4=mad love (i want you to love me)
TTITLE5=I'mm your hootchie coochie man
TTITLE6=she's so pretty
TTITLE7=I just want to make love to you
TTITLE8=ooh wee
TTITLE9=I'm ready
TTITLE10=I don't know why
TTITLE11=smokestack lightnin
TTITLE12=oh! yeh
TTITLE13=I want to be loved
TTITLE14=I'm a natural born lover
TTITLE15=young fashioned ways
TTITLE16=I got to find my baby
TTITLE17=trouble no more
TTITLE18=sugar sweet
TTITLE19=mannish boy
EXTD=YEAR: 2006
EXTT0=
EXTT1=
EXTT2=
EXTT3=
EXTT4=
EXTT5=
EXTT6=
EXTT7=
EXTT8=
EXTT9=
EXTT10=
EXTT11=
EXTT12=
EXTT13=
EXTT14=
EXTT15=
EXTT16=
EXTT17=
EXTT18=
EXTT19=
PLAYORDER=
